<svg version="1.0" xmlns="http://www.w3.org/2000/svg"
 width="20px" height="20px" viewBox="0 0 192.000000 192.000000"
 preserveAspectRatio="xMidYMid meet">
<g transform="translate(0.000000,192.000000) scale(0.100000,-0.100000)"
fill="current" stroke="current">
<path d="M497 1454 c-104 -19 -209 -63 -280 -119 -301 -237 -218 -690 154
-841 119 -49 180 -54 600 -54 l389 0 0 205 0 205 260 0 c143 0 260 2 260 5 0
3 -41 55 -92 115 l-91 110 -501 -1 -501 0 -85 -103 c-46 -57 -86 -109 -88
-115 -3 -8 71 -11 257 -11 l261 0 0 -76 0 -76 -237 4 c-237 4 -238 4 -301 32
-214 98 -201 361 22 445 53 20 76 21 359 21 l302 1 31 42 c17 23 64 84 103
135 l72 92 -408 -1 c-305 -1 -428 -4 -486 -15z"/>
</g>
</svg>
