<?xml version="1.0" encoding="utf-8"?>
<!-- Generator: Adobe Illustrator 22.1.0, SVG Export Plug-In . SVG Version: 6.00 Build 0)  -->
<svg version="1.1" id="Layer_1" xmlns="http://www.w3.org/2000/svg" xmlns:xlink="http://www.w3.org/1999/xlink" x="0px" y="0px"
	 viewBox="0 0 512 512" style="enable-background:new 0 0 512 512;" xml:space="preserve">
<g>
	<title>jest</title>
	<g>
		<path d="M458.4,252.6c0-26.5-17.9-49.7-43.6-56.5l56-165.2H193.2l56.2,165.7c-24.9,7.3-42.1,30-42.1,56c0,19.6,9.7,36.9,24.6,47.6
			c-5.9,8.4-12.8,16.2-20.3,23.3c-13.8,13.2-30.1,23.7-47.8,30.9c-15.7-10.6-22.4-29.2-16.3-45.8c63.7-19.9,49.7-113.7-17-114
			c-32.2,0.1-58.4,26.1-58.4,58.4c0,15.9,6.4,30.5,16.9,40.9c-1,1.8-1.8,3.7-2.8,5.6c-8.7,18-18.6,38.3-22.4,61.1
			c-7.5,45.6,4.8,82.2,34.7,103c16.1,11.4,35.4,17.5,55.2,17.4c34.2,0,69-17.2,102.6-33.9c24-11.8,48.8-24.2,73.1-30.2
			c9-2.2,18.4-3.5,28.3-5c20.1-2.9,40.8-5.8,59.4-16.7c21.5-12.3,36.5-33.5,40.9-57.9c3.2-18.6,0-37.3-8.3-53.8
			C455.3,274.5,458.4,264,458.4,252.6L458.4,252.6z M433,252.6c0,18.1-14.7,32.8-32.8,32.8c-31.1-0.1-44.7-39.2-20.3-58.6l0.1-0.1
			c1.1-0.8,2.3-1.6,3.4-2.4c0,0,0.2,0,0.2-0.1c0.5-0.3,1-0.7,1.5-1c0.2,0,0.2-0.1,0.4-0.1c0.5-0.3,1.2-0.5,1.8-0.8
			c0.7-0.3,1.3-0.5,1.8-0.8c0.1,0,0.2-0.1,0.4-0.1c0.5-0.2,1.1-0.4,1.6-0.5c0.1,0,0.4-0.2,0.5-0.2c0.7-0.2,1.2-0.3,1.8-0.4h0.1
			l2-0.4c0.1,0,0.4,0,0.5-0.2c0.5,0,1-0.2,1.6-0.2h0.6c0.7,0,1.3-0.1,2.1-0.1h1.7c0.5,0,1,0,1.5,0.1h0.2c1,0.2,2.1,0.3,3.1,0.6
			C422.1,223.5,433,237,433,252.6L433,252.6z M229.5,57.1h204.9l-47,138.7c-2,0.4-3.9,1-5.9,1.7L332.1,96.6l-49.7,100.3
			c-1.9-0.6-4-1-6.1-1.4L229.5,57.1z M322.7,241.3c-2.4-12-8.6-23-17.6-31.3l27-54.4l27.2,55.6c-8.1,8.1-14,18.4-16.3,30.1H322.7z
			 M257.4,220.7c0.6-0.2,1.2-0.3,1.8-0.4h0.4c0.5-0.2,1-0.2,1.5-0.3h0.5c0.5,0,1-0.2,1.5-0.2h5c0.5,0,1,0.2,1.3,0.2
			c0.3,0,0.4,0,0.7,0.2c0.5,0.2,0.9,0.2,1.4,0.2c0.2,0,0.3,0,0.6,0.1l1.8,0.4h0.2c0.5,0.2,1.1,0.3,1.6,0.6c0.1,0,0.2,0.1,0.5,0.1
			c0.4,0.2,0.9,0.3,1.3,0.5c0.1,0,0.2,0.2,0.4,0.2c0.5,0.3,1,0.4,1.5,0.7h0.2c0.6,0.2,1.2,0.5,1.7,1h0.2c0.5,0.2,1,0.6,1.5,0.9
			c0.1,0,0.1,0.2,0.3,0.2c0.5,0.2,0.9,0.7,1.4,0.9l0.2,0.2c1.5,1.2,3,2.5,4.5,3.8l0.1,0.1c5.9,6.1,9.1,14.3,9,22.7
			c-1.4,42.3-64.2,42.3-65.6,0C232.6,237.5,242.9,224.4,257.4,220.7L257.4,220.7z M129.2,219.7c18.1,0,32.8,14.8,32.8,32.9
			s-14.7,32.8-32.8,32.8c-18.1,0-32.8-14.7-32.8-32.8C96.4,234.5,111.1,219.7,129.2,219.7z M432.3,332.7c-3,16.8-13.4,31.5-28.2,40
			c-14.2,8.2-31.7,10.8-50,13.4c-10.3,1.3-20.7,3.1-30.8,5.5c-27.1,6.7-53.2,19.6-78.4,32.2c-32.3,16-62.8,31.1-91,31.1
			c-14.5,0.1-28.6-4.4-40.4-12.9c-28.6-19.8-27.2-56.9-23.8-77.3c3.1-19.1,11.8-36.8,20.1-53.9c0.6-1,1-2,1.5-3c2.9,1,5.8,1.8,9,2.3
			c-5,27.6,9.1,56.2,36.5,70.2l4.9,2.5l5.3-1.9c22.8-8.1,43.9-21.2,62.5-38.8c10.3-9.6,19.4-20.4,27.1-32.2c3,0.5,6,0.7,9,0.7
			c26.5-0.1,49.7-17.9,56.4-43.6h21.9c6.7,25.7,29.9,43.6,56.4,43.6c10.8,0,20.9-3,29.4-8.1C433,312.4,434.1,322.6,432.3,332.7
			L432.3,332.7z"/>
	</g>
</g>
</svg>
