<svg width="20" height="20" viewBox="0 0 20 20" fill="current" xmlns="http://www.w3.org/2000/svg">
<g clip-path="url(#clip0_152_2)">
<path d="M8.49494 12.8891C7.77609 12.8891 6.84427 12.3566 6.84427 11.6378V7.56433H1.81236C1.09351 7.56433 0.454545 7.88382 0.454545 8.60263V18.3203C0.454545 19.0392 1.09351 19.8113 1.81236 19.8113H11.5301C12.2489 19.8113 12.7015 19.0392 12.7015 18.3203V12.8891H8.49494Z" fill="current" stroke="none"/>
<path d="M8.49494 12.8891C7.77609 12.8891 6.84427 12.3566 6.84427 11.6378V7.56433H1.81236C1.09351 7.56433 0.454545 7.88382 0.454545 8.60263V18.3203C0.454545 19.0392 1.09351 19.8113 1.81236 19.8113H11.5301C12.2489 19.8113 12.7015 19.0392 12.7015 18.3203V12.8891H8.49494Z" fill="current"/>
<path d="M6.57803 5.78127C6.57803 6.15948 6.29967 6.48367 5.93785 6.48367H1.09473C0.732885 6.48367 0.454545 6.18652 0.454545 5.78127V0.702397C0.454545 0.297168 0.732885 0 1.09473 0H5.93785C6.29967 0 6.57803 0.297168 6.57803 0.702397V5.78127Z" fill="current" stroke="none" />
<path d="M6.57803 5.78127C6.57803 6.15948 6.29967 6.48367 5.93785 6.48367H1.09473C0.732885 6.48367 0.454545 6.18652 0.454545 5.78127V0.702397C0.454545 0.297168 0.732885 0 1.09473 0H5.93785C6.29967 0 6.57803 0.297168 6.57803 0.702397V5.78127Z" fill="current"/>
<path d="M19.5454 19.1478C19.5454 19.505 19.2998 19.8112 18.9805 19.8112H14.7072C14.3879 19.8112 14.1423 19.5306 14.1423 19.1478V14.3511C14.1423 13.9939 14.3879 13.6877 14.7072 13.6877H18.9805C19.2998 13.6877 19.5454 13.9684 19.5454 14.3511V19.1478Z" fill="current" stroke="none" />
<path d="M19.5454 19.1478C19.5454 19.505 19.2998 19.8112 18.9805 19.8112H14.7072C14.3879 19.8112 14.1423 19.5306 14.1423 19.1478V14.3511C14.1423 13.9939 14.3879 13.6877 14.7072 13.6877H18.9805C19.2998 13.6877 19.5454 13.9684 19.5454 14.3511V19.1478Z" fill="current"/>
<path d="M19.5454 10.9424C19.5454 11.6612 18.9597 12.2469 18.2408 12.2469H8.60303C7.88418 12.2469 7.29848 11.6612 7.29848 10.9424V1.30457C7.29848 0.585724 7.88418 0 8.60303 0H18.2408C18.9597 0 19.5454 0.585724 19.5454 1.30457V10.9424Z" fill="current" stroke="none" />
<path d="M19.5454 10.9424C19.5454 11.6612 18.9597 12.2469 18.2408 12.2469H8.60303C7.88418 12.2469 7.29848 11.6612 7.29848 10.9424V1.30457C7.29848 0.585724 7.88418 0 8.60303 0H18.2408C18.9597 0 19.5454 0.585724 19.5454 1.30457V10.9424Z" fill="current"/>
</g>
<defs>
<clipPath id="clip0_152_2">
<rect width="20" height="20" fill="current"/>
</clipPath>
</defs>
</svg>
