<?xml version="1.0" encoding="iso-8859-1"?>
<!-- Generator: Adobe Illustrator 19.0.0, SVG Export Plug-In . SVG Version: 6.00 Build 0)  -->
<svg version="1.1" id="Layer_1" xmlns="http://www.w3.org/2000/svg" xmlns:xlink="http://www.w3.org/1999/xlink" x="0px" y="0px"
	 viewBox="0 0 512 512" style="enable-background:new 0 0 512 512;" xml:space="preserve" width="64px" height="64px">
<g transform="translate(0 -1)">
	<g>
		<path style="fill:#BDC3C7;" d="M423.724,164.31H88.276c-4.873,0-8.828-3.946-8.828-8.828c0-4.882,3.955-8.828,8.828-8.828h335.448
			c4.873,0,8.828,3.946,8.828,8.828C432.552,160.364,428.597,164.31,423.724,164.31"/>
		<path style="fill:#BDC3C7;" d="M123.586,252.586c-4.873,0-8.828-3.946-8.828-8.828v-88.276c0-4.882,3.955-8.828,8.828-8.828
			s8.828,3.946,8.828,8.828v88.276C132.414,248.64,128.459,252.586,123.586,252.586"/>
		<path style="fill:#BDC3C7;" d="M167.724,252.586c-4.873,0-8.828-3.946-8.828-8.828v-88.276c0-4.882,3.955-8.828,8.828-8.828
			s8.828,3.946,8.828,8.828v88.276C176.552,248.64,172.597,252.586,167.724,252.586"/>
		<path style="fill:#BDC3C7;" d="M211.862,252.586c-4.873,0-8.828-3.946-8.828-8.828v-88.276c0-4.882,3.955-8.828,8.828-8.828
			c4.873,0,8.828,3.946,8.828,8.828v88.276C220.69,248.64,216.735,252.586,211.862,252.586"/>
		<path style="fill:#BDC3C7;" d="M256,252.586c-4.873,0-8.828-3.946-8.828-8.828v-88.276c0-4.882,3.955-8.828,8.828-8.828
			s8.828,3.946,8.828,8.828v88.276C264.828,248.64,260.873,252.586,256,252.586"/>
		<path style="fill:#BDC3C7;" d="M300.138,252.586c-4.873,0-8.828-3.946-8.828-8.828v-88.276c0-4.882,3.955-8.828,8.828-8.828
			c4.873,0,8.828,3.946,8.828,8.828v88.276C308.966,248.64,305.011,252.586,300.138,252.586"/>
		<path style="fill:#BDC3C7;" d="M344.276,252.586c-4.873,0-8.828-3.946-8.828-8.828v-88.276c0-4.882,3.955-8.828,8.828-8.828
			c4.873,0,8.828,3.946,8.828,8.828v88.276C353.103,248.64,349.149,252.586,344.276,252.586"/>
		<path style="fill:#BDC3C7;" d="M388.414,252.586c-4.873,0-8.828-3.946-8.828-8.828v-88.276c0-4.882,3.955-8.828,8.828-8.828
			s8.828,3.946,8.828,8.828v88.276C397.241,248.64,393.287,252.586,388.414,252.586"/>
		<polygon style="fill:#BDC3C7;" points="17.655,243.756 70.621,243.756 70.621,173.135 17.655,173.135 		"/>
		<polygon style="fill:#BDC3C7;" points="70.621,137.828 17.655,137.828 35.31,67.207 52.966,67.207 		"/>
	</g>
	<g>
		<polygon style="fill:#7F8C8D;" points="0,173.135 88.276,173.135 88.276,137.825 0,137.825 		"/>
		<path style="fill:#7F8C8D;" d="M70.621,40.724c0,14.627-11.855,26.483-26.483,26.483S17.655,55.351,17.655,40.724
			s11.855-26.483,26.483-26.483S70.621,26.097,70.621,40.724"/>
	</g>
	<g>
		<polygon style="fill:#BDC3C7;" points="441.379,243.756 494.345,243.756 494.345,173.135 441.379,173.135 		"/>
		<polygon style="fill:#BDC3C7;" points="494.345,137.828 441.379,137.828 459.034,67.207 476.69,67.207 		"/>
	</g>
	<g>
		<polygon style="fill:#7F8C8D;" points="423.724,173.135 512,173.135 512,137.825 423.724,137.825 		"/>
		<path style="fill:#7F8C8D;" d="M494.345,40.724c0,14.627-11.855,26.483-26.483,26.483s-26.483-11.855-26.483-26.483
			s11.855-26.483,26.483-26.483S494.345,26.097,494.345,40.724"/>
	</g>
	<polygon style="fill:#D39E5F;" points="0,279.066 512,279.066 512,243.756 0,243.756 	"/>
	<path style="fill:#FAC176;" d="M105.93,499.759H17.654v-220.69h476.69v220.69h-88.276c0-82.944-67.116-150.069-150.069-150.069
		C173.055,349.69,105.93,416.815,105.93,499.759"/>
	<g>
		<path style="fill:#4482C3;" d="M176.552,490.931c-14.601,0-26.483-11.882-26.483-26.483c0-4.882,3.955-8.828,8.828-8.828
			c4.873,0,8.828,3.946,8.828,8.828c0,4.873,3.964,8.828,8.828,8.828c4.864,0,8.828-3.955,8.828-8.828
			c0-4.882,3.955-8.828,8.828-8.828s8.828,3.946,8.828,8.828C203.034,479.049,191.153,490.931,176.552,490.931"/>
		<path style="fill:#4482C3;" d="M335.448,490.931c-14.601,0-26.483-11.882-26.483-26.483c0-4.882,3.955-8.828,8.828-8.828
			c4.873,0,8.828,3.946,8.828,8.828c0,4.873,3.964,8.828,8.828,8.828s8.828-3.955,8.828-8.828c0-4.882,3.955-8.828,8.828-8.828
			c4.873,0,8.828,3.946,8.828,8.828C361.931,479.049,350.049,490.931,335.448,490.931"/>
		<path style="fill:#4482C3;" d="M256,446.793c-14.601,0-26.483-11.882-26.483-26.483c0-4.882,3.955-8.828,8.828-8.828
			c4.873,0,8.828,3.946,8.828,8.828c0,4.873,3.964,8.828,8.828,8.828s8.828-3.955,8.828-8.828c0-4.882,3.955-8.828,8.828-8.828
			c4.873,0,8.828,3.946,8.828,8.828C282.483,434.911,270.601,446.793,256,446.793"/>
	</g>
	<g>
		<path style="fill:#D39E5F;" d="M450.207,340.862c-4.873,0-8.828,3.946-8.828,8.828c0,4.882,3.955,8.828,8.828,8.828h44.138
			v-17.655H450.207z"/>
		<path style="fill:#D39E5F;" d="M423.724,393.828c-4.873,0-8.828,3.946-8.828,8.828c0,4.882,3.955,8.828,8.828,8.828h70.621
			v-17.655H423.724z"/>
		<path style="fill:#D39E5F;" d="M61.793,358.517c4.873,0,8.828-3.946,8.828-8.828c0-4.882-3.955-8.828-8.828-8.828H17.655v17.655
			H61.793z"/>
		<path style="fill:#D39E5F;" d="M88.276,411.483c4.873,0,8.828-3.946,8.828-8.828c0-4.882-3.955-8.828-8.828-8.828H17.655v17.655
			H88.276z"/>
	</g>
</g>
<g>
</g>
<g>
</g>
<g>
</g>
<g>
</g>
<g>
</g>
<g>
</g>
<g>
</g>
<g>
</g>
<g>
</g>
<g>
</g>
<g>
</g>
<g>
</g>
<g>
</g>
<g>
</g>
<g>
</g>
</svg>
