<svg width="48" height="56" viewBox="0 0 48 56" fill="none" xmlns="http://www.w3.org/2000/svg">
<g clip-path="url(#clip0_219_10)">
<path d="M22.981 9.95556C17.7252 15.258 13.4078 19.7488 13.4078 19.8841C13.4078 20.0464 17.7252 24.5101 23.0078 29.8396L32.6078 39.4976H40.1698C46.2302 39.4976 47.7319 39.4164 47.7319 39.1459C47.7319 38.9565 43.495 34.5469 38.3464 29.3527L28.9609 19.8841L38.3464 10.4155C43.495 5.22126 47.7319 0.784543 47.7319 0.595171C47.7319 0.351693 46.0157 0.270533 40.143 0.270533H32.581L22.981 9.95556Z" fill="#273979"/>
<path d="M5.17542 25.3758L0.0268156 30.7053L0 43.2039V55.7295H18.5564H37.1129L42.3687 50.5353C45.238 47.6676 47.6246 45.1517 47.6782 44.9623C47.7855 44.5836 45.9888 44.5295 25.2067 44.5295L11.1285 44.5024L11.048 32.2473C10.9944 22.7246 10.914 20.0193 10.6458 20.0193C10.4849 20.0464 8.01788 22.4541 5.17542 25.3758Z" fill="#273979"/>
</g>
<defs>
<clipPath id="clip0_219_10">
<rect width="48" height="56" fill="white"/>
</clipPath>
</defs>
</svg>
