<svg width="50" height="44" viewBox="0 0 50 44" fill="none" xmlns="http://www.w3.org/2000/svg">
<path fill-rule="evenodd" clip-rule="evenodd" d="M50 21.6507L37.5 43.3013H12.5L0 21.6507L12.5 6.10352e-05L37.5 6.10352e-05L50 21.6507Z" fill="#0096FF"/>
<path d="M18.1182 34.091C16.5636 34.091 15.2136 33.7637 14.0682 33.1092C12.95 32.4274 12.0773 31.5137 11.45 30.3683C10.85 29.1956 10.55 27.8865 10.55 26.441V5.45465H14.4773V26.9319C14.4773 27.9956 14.8045 28.8819 15.4591 29.591C16.1409 30.2728 17.0273 30.6137 18.1182 30.6137H25.8091V34.091H18.1182Z" fill="black"/>
<path d="M20.2591 40.4546V36.9773H32.6545C33.6091 36.9773 34.4273 36.7591 35.1091 36.3228C35.7909 35.8591 36.3227 35.2728 36.7045 34.5637C37.0864 33.8546 37.2773 33.1046 37.2773 32.3137C37.2773 31.4955 37.0864 30.7455 36.7045 30.0637C36.35 29.3546 35.8318 28.7955 35.15 28.3864C34.4954 27.9501 33.6909 27.7319 32.7364 27.7319H27.3364C25.7273 27.7319 24.3091 27.4046 23.0818 26.7501C21.8545 26.0682 20.8864 25.141 20.1773 23.9682C19.4954 22.7682 19.1545 21.4182 19.1545 19.9182C19.1545 18.391 19.4818 17.0137 20.1364 15.7864C20.8182 14.5591 21.7591 13.591 22.9591 12.8819C24.1864 12.1728 25.5909 11.8182 27.1727 11.8182H39.3227V15.2955H27.5409C26.6409 15.2955 25.85 15.5137 25.1682 15.9501C24.4864 16.3591 23.9682 16.9046 23.6136 17.5864C23.2591 18.241 23.0818 18.9501 23.0818 19.7137C23.0818 20.4501 23.2454 21.1591 23.5727 21.841C23.9273 22.4955 24.4318 23.0273 25.0864 23.4364C25.7682 23.8455 26.5454 24.0501 27.4182 24.0501H32.9409C34.6591 24.0501 36.1318 24.391 37.3591 25.0728C38.5864 25.7546 39.5273 26.6819 40.1818 27.8546C40.8364 29.0273 41.1636 30.3637 41.1636 31.8637C41.1636 33.5273 40.8227 35.0137 40.1409 36.3228C39.4864 37.6046 38.5454 38.6137 37.3182 39.3501C36.0909 40.0864 34.6864 40.4546 33.1045 40.4546H20.2591Z" fill="black"/>
</svg>
